<?xml version="1.0" encoding="UTF-8" standalone="no"?><!DOCTYPE svg PUBLIC "-//W3C//DTD SVG 1.1//EN" "http://www.w3.org/Graphics/SVG/1.1/DTD/svg11.dtd"><svg width="100%" height="100%" viewBox="0 0 650 750" version="1.1" xmlns="http://www.w3.org/2000/svg" xmlns:xlink="http://www.w3.org/1999/xlink" xml:space="preserve" xmlns:serif="http://www.serif.com/" style="fill-rule:evenodd;clip-rule:evenodd;"><path d="M649.494,187.505l0,374.99l-324.747,187.505l-324.747,-187.505l0,-374.99l324.747,-187.505l324.747,187.505Z" style="fill:none;"/><clipPath id="_clip1"><path d="M649.494,187.505l0,374.99l-324.747,187.505l-324.747,-187.505l0,-374.99l324.747,-187.505l324.747,187.505Z" clip-rule="nonzero"/></clipPath><g clip-path="url(#_clip1)"><g><rect x="-175.253" y="-125" width="1000" height="1000" style="fill:#fff;"/><path d="M-124.86,579.36l899.214,0" style="fill-rule:nonzero;stroke:#ebebeb;stroke-width:2.18px;"/><path d="M-124.86,345.803l899.214,0" style="fill-rule:nonzero;stroke:#ebebeb;stroke-width:2.18px;"/><path d="M-124.86,112.245l899.214,0" style="fill-rule:nonzero;stroke:#ebebeb;stroke-width:2.18px;"/><path d="M32.795,792.495l0,-834.99" style="fill-rule:nonzero;stroke:#ebebeb;stroke-width:2.18px;"/><path d="M266.352,792.495l0,-834.99" style="fill-rule:nonzero;stroke:#ebebeb;stroke-width:2.18px;"/><path d="M499.93,792.495l0,-834.99" style="fill-rule:nonzero;stroke:#ebebeb;stroke-width:2.18px;"/><path d="M32.795,407.927l131.382,166.766l131.383,-59.332l58.374,-165.828l131.382,81.997l131.383,81.976" style="fill:none;stroke:#000;stroke-width:8.91px;stroke-linejoin:round;stroke-miterlimit:1.41421;"/><path d="M32.795,517.236Z" style="fill:#5fb3f5;"/><path d="M164.177,438.052Z" style="fill:#5395cd;"/><path d="M295.56,351.408Z" style="fill:#4578a7;"/><path d="M353.934,458.841Z" style="fill:#375d84;"/><path d="M485.316,376.865Z" style="fill:#254262;"/><path d="M616.699,294.888Z" style="fill:#142a40;"/><path d="M32.795,515.993Z" style="fill:#62b4f5;"/><path d="M164.177,439.601Z" style="fill:#5796cc;"/><path d="M295.56,353.263Z" style="fill:#4979a6;"/><path d="M353.934,457.619Z" style="fill:#3a5d83;"/><path d="M485.316,377.476Z" style="fill:#264261;"/><path d="M616.699,297.355Z" style="fill:#142a40;"/><circle cx="32.795" cy="514.525" r="0.02" style="fill:#65b5f4;"/><circle cx="164.177" cy="441.456" r="0.02" style="fill:#5b97ca;"/><circle cx="295.56" cy="355.484" r="0.02" style="fill:#4d79a5;"/><circle cx="353.934" cy="456.131" r="0.02" style="fill:#3e5d82;"/><circle cx="485.316" cy="378.231" r="0.02" style="fill:#284260;"/><circle cx="616.699" cy="300.33" r="0.02" style="fill:#14293f;"/><circle cx="32.795" cy="512.772" r="0.061" style="fill:#69b6f4;"/><circle cx="164.177" cy="443.657" r="0.061" style="fill:#5f98c9;"/><circle cx="295.56" cy="358.113" r="0.061" style="fill:#517aa4;"/><circle cx="353.934" cy="454.378" r="0.061" style="fill:#425d82;"/><circle cx="485.316" cy="379.107" r="0.061" style="fill:#2b4260;"/><circle cx="616.699" cy="303.836" r="0.061" style="fill:#15293e;"/><circle cx="32.795" cy="510.714" r="0.122" style="fill:#6db7f3;"/><circle cx="164.177" cy="446.205" r="0.122" style="fill:#6499c7;"/><circle cx="295.56" cy="361.191" r="0.122" style="fill:#567aa2;"/><circle cx="353.934" cy="452.319" r="0.122" style="fill:#465d81;"/><circle cx="485.316" cy="380.126" r="0.122" style="fill:#2d425f;"/><circle cx="616.699" cy="307.913" r="0.122" style="fill:#15293d;"/><circle cx="32.795" cy="508.37" r="0.224" style="fill:#72b8f2;stroke:#72b8f2;stroke-width:0.02px;"/><circle cx="164.177" cy="449.16" r="0.224" style="fill:#6a9ac6;stroke:#6a9ac6;stroke-width:0.02px;"/><circle cx="295.56" cy="364.717" r="0.224" style="fill:#5c7ba1;stroke:#5c7ba1;stroke-width:0.02px;"/><circle cx="353.934" cy="449.975" r="0.224" style="fill:#4b5d7f;stroke:#4b5d7f;stroke-width:0.02px;"/><circle cx="485.316" cy="381.308" r="0.224" style="fill:#30425e;stroke:#30425e;stroke-width:0.02px;"/><circle cx="616.699" cy="312.641" r="0.224" style="fill:#16283c;stroke:#16283c;stroke-width:0.02px;"/><circle cx="32.795" cy="505.659" r="0.367" style="fill:#78baf1;stroke:#78baf1;stroke-width:0.02px;"/><circle cx="164.177" cy="452.523" r="0.367" style="fill:#6f9cc3;stroke:#6f9cc3;stroke-width:0.02px;"/><circle cx="295.56" cy="368.753" r="0.367" style="fill:#617b9f;stroke:#617b9f;stroke-width:0.02px;"/><circle cx="353.934" cy="447.285" r="0.367" style="fill:#505d7e;stroke:#505d7e;stroke-width:0.02px;"/><circle cx="485.316" cy="382.653" r="0.367" style="fill:#33415c;stroke:#33415c;stroke-width:0.02px;"/><circle cx="616.699" cy="318.022" r="0.367" style="fill:#16283a;stroke:#16283a;stroke-width:0.02px;"/><circle cx="32.795" cy="502.622" r="0.53" style="fill:#7dbcf0;stroke:#7dbcf0;stroke-width:0.02px;"/><circle cx="164.177" cy="456.334" r="0.53" style="fill:#769dc1;stroke:#769dc1;stroke-width:0.02px;"/><circle cx="295.56" cy="373.339" r="0.53" style="fill:#677c9d;stroke:#677c9d;stroke-width:0.02px;"/><circle cx="353.934" cy="444.228" r="0.53" style="fill:#565d7d;stroke:#565d7d;stroke-width:0.02px;"/><circle cx="485.316" cy="384.182" r="0.53" style="fill:#36415b;stroke:#36415b;stroke-width:0.02px;"/><circle cx="616.699" cy="324.137" r="0.53" style="fill:#172739;stroke:#172739;stroke-width:0.02px;"/><circle cx="32.795" cy="499.177" r="0.754" style="fill:#83beef;stroke:#83beef;stroke-width:0.04px;"/><circle cx="164.177" cy="460.635" r="0.754" style="fill:#7c9fbe;stroke:#7c9fbe;stroke-width:0.04px;"/><circle cx="295.56" cy="378.496" r="0.754" style="fill:#6e7d9a;stroke:#6e7d9a;stroke-width:0.04px;"/><circle cx="353.934" cy="440.783" r="0.754" style="fill:#5b5d7b;stroke:#5b5d7b;stroke-width:0.04px;"/><circle cx="485.316" cy="385.894" r="0.754" style="fill:#394159;stroke:#394159;stroke-width:0.04px;"/><circle cx="616.699" cy="331.005" r="0.754" style="fill:#172737;stroke:#172737;stroke-width:0.04px;"/><circle cx="32.795" cy="495.346" r="1.039" style="fill:#8ac1ee;stroke:#8ac1ee;stroke-width:0.04px;"/><circle cx="164.177" cy="465.425" r="1.039" style="fill:#83a1bb;stroke:#83a1bb;stroke-width:0.04px;"/><circle cx="295.56" cy="384.243" r="1.039" style="fill:#747e98;stroke:#747e98;stroke-width:0.04px;"/><circle cx="353.934" cy="436.951" r="1.039" style="fill:#625c79;stroke:#625c79;stroke-width:0.04px;"/><circle cx="485.316" cy="387.81" r="1.039" style="fill:#3c4057;stroke:#3c4057;stroke-width:0.04px;"/><circle cx="616.699" cy="338.669" r="1.039" style="fill:#182635;stroke:#182635;stroke-width:0.04px;"/><circle cx="32.795" cy="491.086" r="1.386" style="fill:#91c4ed;stroke:#91c4ed;stroke-width:0.06px;"/><circle cx="164.177" cy="470.765" r="1.386" style="fill:#8aa4b8;stroke:#8aa4b8;stroke-width:0.06px;"/><circle cx="295.56" cy="390.643" r="1.386" style="fill:#7b7f95;stroke:#7b7f95;stroke-width:0.06px;"/><circle cx="353.934" cy="432.691" r="1.386" style="fill:#685c77;stroke:#685c77;stroke-width:0.06px;"/><circle cx="485.316" cy="389.95" r="1.386" style="fill:#404055;stroke:#404055;stroke-width:0.06px;"/><circle cx="616.699" cy="347.209" r="1.386" style="fill:#182633;stroke:#182633;stroke-width:0.06px;"/><circle cx="32.795" cy="486.357" r="1.814" style="fill:#98c7eb;stroke:#98c7eb;stroke-width:0.08px;"/><circle cx="164.177" cy="476.655" r="1.814" style="fill:#92a6b4;stroke:#92a6b4;stroke-width:0.08px;"/><circle cx="295.56" cy="397.716" r="1.814" style="fill:#838091;stroke:#838091;stroke-width:0.08px;"/><circle cx="353.934" cy="427.983" r="1.814" style="fill:#6f5c75;stroke:#6f5c75;stroke-width:0.08px;"/><circle cx="485.316" cy="392.294" r="1.814" style="fill:#444053;stroke:#444053;stroke-width:0.08px;"/><circle cx="616.699" cy="356.626" r="1.814" style="fill:#192530;stroke:#192530;stroke-width:0.08px;"/><circle cx="32.795" cy="481.18" r="2.303" style="fill:#a0cae9;stroke:#a0cae9;stroke-width:0.1px;"/><circle cx="164.177" cy="483.137" r="2.303" style="fill:#9aa9b0;stroke:#9aa9b0;stroke-width:0.1px;"/><circle cx="295.56" cy="405.481" r="2.303" style="fill:#8b828e;stroke:#8b828e;stroke-width:0.1px;"/><circle cx="353.934" cy="422.786" r="2.303" style="fill:#765c72;stroke:#765c72;stroke-width:0.1px;"/><circle cx="485.316" cy="394.903" r="2.303" style="fill:#473f51;stroke:#473f51;stroke-width:0.1px;"/><circle cx="616.699" cy="367" r="2.303" style="fill:#19242d;stroke:#19242d;stroke-width:0.1px;"/><circle cx="32.795" cy="475.514" r="2.874" style="fill:#a8cee7;stroke:#a8cee7;stroke-width:0.14px;"/><circle cx="164.177" cy="490.23" r="2.874" style="fill:#a2adab;stroke:#a2adab;stroke-width:0.14px;"/><circle cx="295.56" cy="414.001" r="2.874" style="fill:#93838a;stroke:#93838a;stroke-width:0.14px;"/><circle cx="353.934" cy="417.119" r="2.874" style="fill:#7d5c6f;stroke:#7d5c6f;stroke-width:0.14px;"/><circle cx="485.316" cy="397.736" r="2.874" style="fill:#4b3f4e;stroke:#4b3f4e;stroke-width:0.14px;"/><circle cx="616.699" cy="378.353" r="2.874" style="fill:#1a232a;stroke:#1a232a;stroke-width:0.14px;"/><circle cx="32.795" cy="469.318" r="3.526" style="fill:#b1d2e5;stroke:#b1d2e5;stroke-width:0.16px;"/><circle cx="164.177" cy="497.955" r="3.526" style="fill:#abb0a6;stroke:#abb0a6;stroke-width:0.16px;"/><circle cx="295.56" cy="423.295" r="3.526" style="fill:#9b8585;stroke:#9b8585;stroke-width:0.16px;"/><circle cx="353.934" cy="410.923" r="3.526" style="fill:#855b6c;stroke:#855b6c;stroke-width:0.16px;"/><circle cx="485.316" cy="400.834" r="3.526" style="fill:#4f3e4b;stroke:#4f3e4b;stroke-width:0.16px;"/><circle cx="616.699" cy="390.725" r="3.526" style="fill:#1a2227;stroke:#1a2227;stroke-width:0.16px;"/><circle cx="32.795" cy="462.592" r="4.28" style="fill:#bad6e2;stroke:#bad6e2;stroke-width:0.2px;"/><circle cx="164.177" cy="506.372" r="4.28" style="fill:#b4b4a0;stroke:#b4b4a0;stroke-width:0.2px;"/><circle cx="295.56" cy="433.384" r="4.28" style="fill:#a48680;stroke:#a48680;stroke-width:0.2px;"/><circle cx="353.934" cy="404.197" r="4.28" style="fill:#8d5b69;stroke:#8d5b69;stroke-width:0.2px;"/><circle cx="485.316" cy="404.197" r="4.28" style="fill:#533d48;stroke:#533d48;stroke-width:0.2px;"/><circle cx="616.699" cy="404.197" r="4.28" style="fill:#1a2124;stroke:#1a2124;stroke-width:0.2px;"/><circle cx="32.795" cy="455.845" r="5.136" style="fill:#c2dbe0;stroke:#c2dbe0;stroke-width:0.24px;"/><circle cx="164.177" cy="514.79" r="5.136" style="fill:#bcb89a;stroke:#bcb89a;stroke-width:0.24px;"/><circle cx="295.56" cy="443.494" r="5.136" style="fill:#ac887b;stroke:#ac887b;stroke-width:0.24px;"/><circle cx="353.934" cy="397.471" r="5.136" style="fill:#955a66;stroke:#955a66;stroke-width:0.24px;"/><circle cx="485.316" cy="407.56" r="5.136" style="fill:#573d45;stroke:#573d45;stroke-width:0.24px;"/><circle cx="616.699" cy="417.649" r="5.136" style="fill:#1a2020;stroke:#1a2020;stroke-width:0.24px;"/><circle cx="32.795" cy="449.67" r="6.094" style="fill:#cadfde;stroke:#cadfde;stroke-width:0.29px;"/><circle cx="164.177" cy="522.535" r="6.094" style="fill:#c4bc95;stroke:#c4bc95;stroke-width:0.29px;"/><circle cx="295.56" cy="452.768" r="6.094" style="fill:#b48a77;stroke:#b48a77;stroke-width:0.29px;"/><circle cx="353.934" cy="391.275" r="6.094" style="fill:#9c5963;stroke:#9c5963;stroke-width:0.29px;"/><circle cx="485.316" cy="410.658" r="6.094" style="fill:#5a3c42;stroke:#5a3c42;stroke-width:0.29px;"/><circle cx="616.699" cy="430.042" r="6.094" style="fill:#1a1f1d;stroke:#1a1f1d;stroke-width:0.29px;"/><circle cx="32.795" cy="443.983" r="7.174" style="fill:#d1e3dc;stroke:#d1e3dc;stroke-width:0.33px;"/><circle cx="164.177" cy="529.628" r="7.174" style="fill:#cabf90;stroke:#cabf90;stroke-width:0.33px;"/><circle cx="295.56" cy="461.287" r="7.174" style="fill:#bb8b72;stroke:#bb8b72;stroke-width:0.33px;"/><circle cx="353.934" cy="385.588" r="7.174" style="fill:#a35960;stroke:#a35960;stroke-width:0.33px;"/><circle cx="485.316" cy="413.491" r="7.174" style="fill:#5d3b3f;stroke:#5d3b3f;stroke-width:0.33px;"/><circle cx="616.699" cy="441.394" r="7.174" style="fill:#1a1e1b;stroke:#1a1e1b;stroke-width:0.33px;"/><circle cx="32.795" cy="438.806" r="8.377" style="fill:#d7e6da;stroke:#d7e6da;stroke-width:0.39px;"/><circle cx="164.177" cy="536.11" r="8.377" style="fill:#d0c28b;stroke:#d0c28b;stroke-width:0.39px;"/><circle cx="295.56" cy="469.053" r="8.377" style="fill:#c18d6e;stroke:#c18d6e;stroke-width:0.39px;"/><circle cx="353.934" cy="380.411" r="8.377" style="fill:#a8585d;stroke:#a8585d;stroke-width:0.39px;"/><circle cx="485.316" cy="416.08" r="8.377" style="fill:#603b3d;stroke:#603b3d;stroke-width:0.39px;"/><circle cx="616.699" cy="451.749" r="8.377" style="fill:#1a1e18;stroke:#1a1e18;stroke-width:0.39px;"/><circle cx="32.795" cy="434.098" r="9.681" style="fill:#ddead8;stroke:#ddead8;stroke-width:0.45px;"/><circle cx="164.177" cy="542" r="9.681" style="fill:#d6c586;stroke:#d6c586;stroke-width:0.45px;"/><circle cx="295.56" cy="476.125" r="9.681" style="fill:#c68e6b;stroke:#c68e6b;stroke-width:0.45px;"/><circle cx="353.934" cy="375.703" r="9.681" style="fill:#ad575b;stroke:#ad575b;stroke-width:0.45px;"/><circle cx="485.316" cy="418.444" r="9.681" style="fill:#623a3b;stroke:#623a3b;stroke-width:0.45px;"/><circle cx="616.699" cy="461.185" r="9.681" style="fill:#191d16;stroke:#191d16;stroke-width:0.45px;"/><circle cx="32.795" cy="429.817" r="11.149" style="fill:#e2edd6;stroke:#e2edd6;stroke-width:0.51px;"/><circle cx="164.177" cy="547.32" r="11.149" style="fill:#dac882;stroke:#dac882;stroke-width:0.51px;"/><circle cx="295.56" cy="482.525" r="11.149" style="fill:#cb8f67;stroke:#cb8f67;stroke-width:0.51px;"/><circle cx="353.934" cy="371.443" r="11.149" style="fill:#b25759;stroke:#b25759;stroke-width:0.51px;"/><circle cx="485.316" cy="420.564" r="11.149" style="fill:#643a39;stroke:#643a39;stroke-width:0.51px;"/><circle cx="616.699" cy="469.705" r="11.149" style="fill:#191c13;stroke:#191c13;stroke-width:0.51px;"/><circle cx="32.795" cy="425.986" r="12.739" style="fill:#e6efd5;stroke:#e6efd5;stroke-width:0.59px;"/><circle cx="164.177" cy="552.13" r="12.739" style="fill:#deca7f;stroke:#deca7f;stroke-width:0.59px;"/><circle cx="295.56" cy="488.293" r="12.739" style="fill:#cf9064;stroke:#cf9064;stroke-width:0.59px;"/><circle cx="353.934" cy="367.591" r="12.739" style="fill:#b65657;stroke:#b65657;stroke-width:0.59px;"/><circle cx="485.316" cy="422.5" r="12.739" style="fill:#663937;stroke:#663937;stroke-width:0.59px;"/><circle cx="616.699" cy="477.389" r="12.739" style="fill:#191c11;stroke:#191c11;stroke-width:0.59px;"/><circle cx="32.795" cy="422.561" r="14.471" style="fill:#eaf2d3;stroke:#eaf2d3;stroke-width:0.67px;"/><circle cx="164.177" cy="556.41" r="14.471" style="fill:#e2cc7b;stroke:#e2cc7b;stroke-width:0.67px;"/><circle cx="295.56" cy="493.43" r="14.471" style="fill:#d39161;stroke:#d39161;stroke-width:0.67px;"/><circle cx="353.934" cy="364.167" r="14.471" style="fill:#ba5555;stroke:#ba5555;stroke-width:0.67px;"/><circle cx="485.316" cy="424.212" r="14.471" style="fill:#683935;stroke:#683935;stroke-width:0.67px;"/><circle cx="616.699" cy="484.258" r="14.471" style="fill:#191b0f;stroke:#191b0f;stroke-width:0.67px;"/><circle cx="32.795" cy="419.504" r="16.346" style="fill:#eef4d2;stroke:#eef4d2;stroke-width:0.75px;"/><circle cx="164.177" cy="560.242" r="16.346" style="fill:#e5ce78;stroke:#e5ce78;stroke-width:0.75px;"/><circle cx="295.56" cy="498.016" r="16.346" style="fill:#d6925f;stroke:#d6925f;stroke-width:0.75px;"/><circle cx="353.934" cy="361.11" r="16.346" style="fill:#bd5553;stroke:#bd5553;stroke-width:0.75px;"/><circle cx="485.316" cy="425.741" r="16.346" style="fill:#693934;stroke:#693934;stroke-width:0.75px;"/><circle cx="616.699" cy="490.352" r="16.346" style="fill:#191b0d;stroke:#191b0d;stroke-width:0.75px;"/><circle cx="32.795" cy="416.814" r="18.385" style="fill:#f1f6d1;stroke:#f1f6d1;stroke-width:0.86px;"/><circle cx="164.177" cy="563.605" r="18.385" style="fill:#e8d075;stroke:#e8d075;stroke-width:0.86px;"/><circle cx="295.56" cy="502.051" r="18.385" style="fill:#d9925d;stroke:#d9925d;stroke-width:0.86px;"/><circle cx="353.934" cy="358.419" r="18.385" style="fill:#c05452;stroke:#c05452;stroke-width:0.86px;"/><circle cx="485.316" cy="427.086" r="18.385" style="fill:#6a3833;stroke:#6a3833;stroke-width:0.86px;"/><circle cx="616.699" cy="495.753" r="18.385" style="fill:#191a0b;stroke:#191a0b;stroke-width:0.86px;"/><circle cx="32.795" cy="414.449" r="20.586" style="fill:#f3f7d0;stroke:#f3f7d0;stroke-width:0.96px;"/><circle cx="164.177" cy="566.54" r="20.586" style="fill:#ebd173;stroke:#ebd173;stroke-width:0.96px;"/><circle cx="295.56" cy="505.598" r="20.586" style="fill:#dc935b;stroke:#dc935b;stroke-width:0.96px;"/><circle cx="353.934" cy="356.055" r="20.586" style="fill:#c25451;stroke:#c25451;stroke-width:0.96px;"/><circle cx="485.316" cy="428.268" r="20.586" style="fill:#6b3831;stroke:#6b3831;stroke-width:0.96px;"/><circle cx="616.699" cy="500.462" r="20.586" style="fill:#191a09;stroke:#191a09;stroke-width:0.96px;"/><circle cx="32.795" cy="412.411" r="22.971" style="fill:#f5f9cf;stroke:#f5f9cf;stroke-width:1.06px;"/><circle cx="164.177" cy="569.108" r="22.971" style="fill:#edd271;stroke:#edd271;stroke-width:1.06px;"/><circle cx="295.56" cy="508.655" r="22.971" style="fill:#de9359;stroke:#de9359;stroke-width:1.06px;"/><circle cx="353.934" cy="354.017" r="22.971" style="fill:#c45350;stroke:#c45350;stroke-width:1.06px;"/><circle cx="485.316" cy="429.288" r="22.971" style="fill:#6c3830;stroke:#6c3830;stroke-width:1.06px;"/><circle cx="616.699" cy="504.558" r="22.971" style="fill:#191a07;stroke:#191a07;stroke-width:1.06px;"/><circle cx="32.795" cy="410.658" r="25.518" style="fill:#f7face;stroke:#f7face;stroke-width:1.18px;"/><circle cx="164.177" cy="571.289" r="25.518" style="fill:#efd36f;stroke:#efd36f;stroke-width:1.18px;"/><circle cx="295.56" cy="511.284" r="25.518" style="fill:#e09457;stroke:#e09457;stroke-width:1.18px;"/><circle cx="353.934" cy="352.264" r="25.518" style="fill:#c6534f;stroke:#c6534f;stroke-width:1.18px;"/><circle cx="485.316" cy="430.164" r="25.518" style="fill:#6d3730;stroke:#6d3730;stroke-width:1.18px;"/><circle cx="616.699" cy="508.064" r="25.518" style="fill:#191905;stroke:#191905;stroke-width:1.18px;"/><circle cx="32.795" cy="409.17" r="28.249" style="fill:#f9fbce;stroke:#f9fbce;stroke-width:1.3px;"/><circle cx="164.177" cy="573.144" r="28.249" style="fill:#f0d46d;stroke:#f0d46d;stroke-width:1.3px;"/><circle cx="295.56" cy="513.506" r="28.249" style="fill:#e19456;stroke:#e19456;stroke-width:1.3px;"/><circle cx="353.934" cy="350.776" r="28.249" style="fill:#c7534e;stroke:#c7534e;stroke-width:1.3px;"/><circle cx="485.316" cy="430.898" r="28.249" style="fill:#6d372f;stroke:#6d372f;stroke-width:1.3px;"/><circle cx="616.699" cy="511.019" r="28.249" style="fill:#191904;stroke:#191904;stroke-width:1.3px;"/><circle cx="32.795" cy="407.927" r="31.164" style="fill:#fafccd;stroke:#fafccd;stroke-width:1.45px;"/><circle cx="164.177" cy="574.693" r="31.164" style="fill:#f2d56c;stroke:#f2d56c;stroke-width:1.45px;"/><circle cx="295.56" cy="515.361" r="31.164" style="fill:#e39555;stroke:#e39555;stroke-width:1.45px;"/><circle cx="353.934" cy="349.533" r="31.164" style="fill:#c9524d;stroke:#c9524d;stroke-width:1.45px;"/><circle cx="485.316" cy="431.53" r="31.164" style="fill:#6e372e;stroke:#6e372e;stroke-width:1.45px;"/><circle cx="616.699" cy="513.506" r="31.164" style="fill:#191903;stroke:#191903;stroke-width:1.45px;"/><path d="M118.388,212.701l0,42.864c0,8.288 -2.025,14.427 -6.077,18.416c-4.051,3.99 -10.159,5.985 -18.323,5.985c-4.516,0 -8.799,-0.665 -12.85,-1.995c-4.052,-1.33 -7.345,-3.17 -9.881,-5.52l3.34,-5.01c2.35,2.103 5.211,3.742 8.582,4.917c3.371,1.175 6.912,1.763 10.623,1.763c6.185,0 10.731,-1.438 13.638,-4.315c2.908,-2.876 4.361,-7.345 4.361,-13.406l0,-6.216c-2.041,3.092 -4.716,5.443 -8.025,7.051c-3.309,1.608 -6.974,2.412 -10.995,2.412c-4.577,0 -8.736,-1.005 -12.478,-3.015c-3.742,-2.01 -6.68,-4.825 -8.814,-8.443c-2.134,-3.618 -3.201,-7.716 -3.201,-12.293c0,-4.577 1.067,-8.66 3.201,-12.247c2.134,-3.588 5.056,-6.371 8.767,-8.35c3.711,-1.98 7.886,-2.969 12.525,-2.969c4.145,0 7.887,0.835 11.227,2.505c3.34,1.67 6.03,4.082 8.071,7.237l0,-9.371l6.309,0Zm-24.957,41.101c3.525,0 6.711,-0.758 9.556,-2.273c2.845,-1.515 5.057,-3.634 6.634,-6.355c1.577,-2.722 2.366,-5.815 2.366,-9.278c0,-3.464 -0.789,-6.541 -2.366,-9.232c-1.577,-2.69 -3.773,-4.793 -6.588,-6.309c-2.814,-1.515 -6.015,-2.273 -9.602,-2.273c-3.526,0 -6.696,0.742 -9.51,2.227c-2.814,1.484 -5.01,3.587 -6.587,6.309c-1.578,2.721 -2.366,5.814 -2.366,9.278c0,3.463 0.788,6.556 2.366,9.278c1.577,2.721 3.773,4.84 6.587,6.355c2.814,1.515 5.984,2.273 9.51,2.273Z" style="fill-opacity:0.968627;fill-rule:nonzero;"/><path d="M182.035,212.701l0,42.864c0,8.288 -2.026,14.427 -6.077,18.416c-4.052,3.99 -10.16,5.985 -18.324,5.985c-4.515,0 -8.799,-0.665 -12.85,-1.995c-4.051,-1.33 -7.345,-3.17 -9.881,-5.52l3.34,-5.01c2.351,2.103 5.211,3.742 8.582,4.917c3.371,1.175 6.912,1.763 10.623,1.763c6.186,0 10.732,-1.438 13.639,-4.315c2.907,-2.876 4.36,-7.345 4.36,-13.406l0,-6.216c-2.041,3.092 -4.716,5.443 -8.025,7.051c-3.309,1.608 -6.974,2.412 -10.994,2.412c-4.577,0 -8.737,-1.005 -12.479,-3.015c-3.742,-2.01 -6.68,-4.825 -8.814,-8.443c-2.134,-3.618 -3.201,-7.716 -3.201,-12.293c0,-4.577 1.067,-8.66 3.201,-12.247c2.134,-3.588 5.056,-6.371 8.768,-8.35c3.711,-1.98 7.886,-2.969 12.525,-2.969c4.144,0 7.886,0.835 11.226,2.505c3.34,1.67 6.031,4.082 8.072,7.237l0,-9.371l6.309,0Zm-24.958,41.101c3.526,0 6.711,-0.758 9.556,-2.273c2.846,-1.515 5.057,-3.634 6.634,-6.355c1.577,-2.722 2.366,-5.815 2.366,-9.278c0,-3.464 -0.789,-6.541 -2.366,-9.232c-1.577,-2.69 -3.773,-4.793 -6.587,-6.309c-2.814,-1.515 -6.015,-2.273 -9.603,-2.273c-3.525,0 -6.695,0.742 -9.51,2.227c-2.814,1.484 -5.01,3.587 -6.587,6.309c-1.577,2.721 -2.366,5.814 -2.366,9.278c0,3.463 0.789,6.556 2.366,9.278c1.577,2.721 3.773,4.84 6.587,6.355c2.815,1.515 5.985,2.273 9.51,2.273Z" style="fill-opacity:0.968627;fill-rule:nonzero;"/><path d="M217.569,212.33c6.371,0 11.257,1.593 14.659,4.778c3.402,3.185 5.103,7.902 5.103,14.149l0,30.246l-6.309,0l0,-7.608c-1.484,2.536 -3.665,4.515 -6.541,5.938c-2.876,1.422 -6.293,2.134 -10.252,2.134c-5.443,0 -9.773,-1.299 -12.989,-3.897c-3.216,-2.598 -4.824,-6.031 -4.824,-10.299c0,-4.144 1.499,-7.484 4.499,-10.02c3,-2.536 7.778,-3.804 14.335,-3.804l15.494,0l0,-2.969c0,-4.206 -1.175,-7.406 -3.526,-9.602c-2.35,-2.196 -5.783,-3.294 -10.298,-3.294c-3.093,0 -6.062,0.51 -8.907,1.531c-2.845,1.021 -5.288,2.428 -7.33,4.221l-2.969,-4.917c2.475,-2.103 5.443,-3.726 8.907,-4.871c3.464,-1.144 7.113,-1.716 10.948,-1.716Zm-2.319,44.441c3.711,0 6.896,-0.85 9.556,-2.551c2.66,-1.701 4.639,-4.16 5.938,-7.376l0,-7.979l-15.309,0c-8.35,0 -12.525,2.907 -12.525,8.721c0,2.845 1.082,5.087 3.247,6.726c2.165,1.639 5.196,2.459 9.093,2.459Z" style="fill-opacity:0.968627;fill-rule:nonzero;"/><path d="M280.102,212.33c6.124,0 10.994,1.778 14.613,5.335c3.618,3.556 5.427,8.736 5.427,15.54l0,28.298l-6.587,0l0,-27.648c0,-5.072 -1.268,-8.938 -3.804,-11.598c-2.536,-2.659 -6.154,-3.989 -10.855,-3.989c-5.257,0 -9.417,1.561 -12.479,4.685c-3.061,3.124 -4.592,7.438 -4.592,12.943l0,25.607l-6.588,0l0,-48.802l6.309,0l0,9c1.794,-2.969 4.284,-5.273 7.469,-6.913c3.185,-1.639 6.881,-2.458 11.087,-2.458Z" style="fill-opacity:0.968627;fill-rule:nonzero;"/><path d="M318.049,212.701l6.587,0l0,48.802l-6.587,0l0,-48.802Zm3.34,-10.67c-1.361,0 -2.505,-0.464 -3.433,-1.391c-0.928,-0.928 -1.392,-2.041 -1.392,-3.34c0,-1.237 0.464,-2.32 1.392,-3.248c0.928,-0.927 2.072,-1.391 3.433,-1.391c1.361,0 2.505,0.448 3.433,1.345c0.927,0.897 1.391,1.964 1.391,3.201c0,1.361 -0.464,2.505 -1.391,3.433c-0.928,0.927 -2.072,1.391 -3.433,1.391Z" style="fill-opacity:0.968627;fill-rule:nonzero;"/><path d="M403.869,212.33c6.124,0 10.933,1.763 14.427,5.288c3.495,3.526 5.242,8.721 5.242,15.587l0,28.298l-6.587,0l0,-27.648c0,-5.072 -1.221,-8.938 -3.665,-11.598c-2.443,-2.659 -5.891,-3.989 -10.344,-3.989c-5.072,0 -9.062,1.561 -11.969,4.685c-2.907,3.124 -4.361,7.438 -4.361,12.943l0,25.607l-6.587,0l0,-27.648c0,-5.072 -1.221,-8.938 -3.665,-11.598c-2.443,-2.659 -5.922,-3.989 -10.437,-3.989c-5.01,0 -8.984,1.561 -11.922,4.685c-2.938,3.124 -4.407,7.438 -4.407,12.943l0,25.607l-6.588,0l0,-48.802l6.309,0l0,8.907c1.732,-2.969 4.144,-5.258 7.237,-6.866c3.093,-1.608 6.649,-2.412 10.67,-2.412c4.082,0 7.623,0.866 10.623,2.598c3,1.732 5.242,4.298 6.726,7.7c1.794,-3.216 4.376,-5.737 7.747,-7.561c3.371,-1.825 7.222,-2.737 11.551,-2.737Z" style="fill-opacity:0.968627;fill-rule:nonzero;"/><path d="M458.516,212.33c6.371,0 11.257,1.593 14.659,4.778c3.402,3.185 5.103,7.902 5.103,14.149l0,30.246l-6.309,0l0,-7.608c-1.484,2.536 -3.665,4.515 -6.541,5.938c-2.876,1.422 -6.293,2.134 -10.252,2.134c-5.443,0 -9.773,-1.299 -12.989,-3.897c-3.216,-2.598 -4.824,-6.031 -4.824,-10.299c0,-4.144 1.499,-7.484 4.499,-10.02c3,-2.536 7.778,-3.804 14.335,-3.804l15.494,0l0,-2.969c0,-4.206 -1.175,-7.406 -3.526,-9.602c-2.35,-2.196 -5.783,-3.294 -10.298,-3.294c-3.093,0 -6.062,0.51 -8.907,1.531c-2.845,1.021 -5.289,2.428 -7.33,4.221l-2.969,-4.917c2.475,-2.103 5.443,-3.726 8.907,-4.871c3.464,-1.144 7.113,-1.716 10.948,-1.716Zm-2.319,44.441c3.711,0 6.896,-0.85 9.556,-2.551c2.66,-1.701 4.639,-4.16 5.938,-7.376l0,-7.979l-15.309,0c-8.35,0 -12.525,2.907 -12.525,8.721c0,2.845 1.082,5.087 3.247,6.726c2.165,1.639 5.196,2.459 9.093,2.459Z" style="fill-opacity:0.968627;fill-rule:nonzero;"/><path d="M521.884,258.534c-1.237,1.113 -2.768,1.964 -4.592,2.551c-1.825,0.588 -3.727,0.882 -5.706,0.882c-4.577,0 -8.103,-1.237 -10.577,-3.712c-2.474,-2.474 -3.711,-5.968 -3.711,-10.484l0,-29.503l-8.721,0l0,-5.567l8.721,0l0,-10.67l6.587,0l0,10.67l14.845,0l0,5.567l-14.845,0l0,29.132c0,2.907 0.727,5.119 2.18,6.634c1.454,1.515 3.541,2.273 6.263,2.273c1.361,0 2.675,-0.216 3.943,-0.649c1.268,-0.433 2.366,-1.052 3.294,-1.856l2.319,4.732Z" style="fill-opacity:0.968627;fill-rule:nonzero;"/><path d="M574.583,239.143l-40.823,0c0.371,5.072 2.319,9.17 5.845,12.293c3.526,3.124 7.979,4.686 13.36,4.686c3.031,0 5.814,-0.542 8.35,-1.624c2.536,-1.083 4.732,-2.675 6.588,-4.778l3.711,4.268c-2.165,2.597 -4.871,4.577 -8.118,5.937c-3.248,1.361 -6.82,2.042 -10.716,2.042c-5.01,0 -9.448,-1.067 -13.314,-3.201c-3.866,-2.134 -6.881,-5.088 -9.046,-8.861c-2.165,-3.773 -3.247,-8.041 -3.247,-12.803c0,-4.763 1.036,-9.031 3.108,-12.804c2.072,-3.773 4.917,-6.711 8.535,-8.814c3.619,-2.103 7.686,-3.154 12.201,-3.154c4.515,0 8.566,1.051 12.154,3.154c3.587,2.103 6.402,5.026 8.443,8.768c2.041,3.742 3.061,8.025 3.061,12.85l-0.092,2.041Zm-23.566,-21.154c-4.701,0 -8.644,1.5 -11.83,4.5c-3.185,3 -4.994,6.912 -5.427,11.737l34.606,0c-0.433,-4.825 -2.242,-8.737 -5.427,-11.737c-3.186,-3 -7.16,-4.5 -11.922,-4.5Z" style="fill-opacity:0.968627;fill-rule:nonzero;"/></g></g><path d="M649.494,187.505l0,374.99l-324.747,187.505l-324.747,-187.505l0,-374.99l324.747,-187.505l324.747,187.505Zm-632.169,10.002l0,354.986l307.422,177.502l307.422,-177.502l0,-354.986l-307.422,-177.502l-307.422,177.502Z"/></svg>